<svg xmlns="http://www.w3.org/2000/svg" preserveAspectRatio="xMidYMid" width="32px" height="30px"
        viewBox="0 0 32 30" fill="#fff">
        <defs></defs>
        <path
                d="M27 24.6C27.2 25.8 27.6 26.7 27.9 27.3 28.3 27.9 28.7 28.2
        28.7 28.2 29 28.5 29.1 28.9 28.9 29.3 28.8 29.7 28.5 30 28.1 30 28 30
        27.9 30 27.8 30 26.7 30 23.4 29.8 20.9 27L19 27C15.9 27 13.2 25.8 11.5
        24.9 11 24.6 10.9 24 11.1 23.5 11.4 23 12 22.9 12.5 23.1 14 24 16.3 25
        19 25L21.4 25C21.7 25 22 25.1 22.2 25.4 23.3 26.8 24.8 27.5 25.9 27.8
        25.4 26.7 25.1 25.4 25 24.1 24.9 23.7 25.1 23.4 25.5 23.2 28.3 21.5 30
        19.1 30 16.5 30 14.8 29.3 13 28.2 11.6 27.9 11.2 27.9 10.6 28.3 10.2
        28.8 9.9 29.4 9.9 29.7 10.4 31.2 12 32 14.3 32 16.5 32 19.6 30.2 22.5 27
        24.6ZM13 21L11.1 21C8.6 23.8 5.2 24 4.2 24 4 24 3.9 24 3.9 24 3.5 24 3.2
        23.7 3.1 23.3 2.9 22.9 3 22.5 3.3 22.3 3.4 22.2 4.7 21 5 18.6 1.8 16.5 0
        13.6 0 10.5 0 4.7 5.8 0 13 0 20.2 0 26 4.7 26 10.5 26 16.3 20.2 21 13
        21ZM13 2C6.9 2 2 5.8 2 10.5 2 13.1 3.7 15.5 6.5 17.2 6.9 17.4 7.1 17.7 7
        18.1 6.9 19.6 6.5 20.9 6.1 21.8 7.2 21.5 8.7 20.8 9.8 19.4 10 19.1 10.3
        19 10.6 19L13 19C19.1 19 24 15.2 24 10.5 24 5.8 19.1 2 13 2Z"
                class="cls-1"></path>
</svg>