<svg xmlns="http://www.w3.org/2000/svg" preserveAspectRatio="xMidYMid" width="24" height="24"
        viewBox="0 0 23.8 23.9" fill="#fff" style="width: 24px; height: 24px;">
        <defs></defs>
        <path
                d="M13.3 11.9L23.5 22.2C23.9 22.6 23.9 23.2 23.5 23.6 23.3
        23.8 23.1 23.9 22.8 23.9 22.6 23.9 22.3 23.8 22.1 23.6L11.9 13.4 1.7
        23.6C1.5 23.8 1.2 23.9 1 23.9 0.7 23.9 0.5 23.8 0.3 23.6 -0.1 23.2-0.1
        22.6 0.3 22.2L10.5 11.9 0.3 1.7C-0.1 1.3-0.1 0.7 0.3 0.3 0.7-0.1 1.3-0.1
        1.7 0.3L11.9 10.5 22.1 0.3C22.5-0.1 23.1-0.1 23.5 0.3 23.9 0.7 23.9 1.3
        23.5 1.7L13.3 11.9Z"
                class="cls-1"></path>
</svg>